HIERARCHY
ROOT joint_Root
{
	OFFSET 0.0 0.0 0.0
	CHANNELS 6 Xposition Yposition Zposition Zrotation Xrotation Yrotation 
	JOINT Hips
	{
		OFFSET -17.1583 93.1646 452.98
		CHANNELS 6 Xposition Yposition Zposition Zrotation Xrotation Yrotation 
		JOINT Spine
		{
			OFFSET 15.7357 0.0 0.0
			CHANNELS 6 Xposition Yposition Zposition Zrotation Xrotation Yrotation 
			JOINT Chest
			{
				OFFSET 8.98455 -0.406207 0.0
				CHANNELS 6 Xposition Yposition Zposition Zrotation Xrotation Yrotation 
				JOINT Neck
				{
					OFFSET 16.3773 0.0 0.0
					CHANNELS 6 Xposition Yposition Zposition Zrotation Xrotation Yrotation 
					JOINT Head
					{
						OFFSET 6.45672 0.0 0.0
						CHANNELS 6 Xposition Yposition Zposition Zrotation Xrotation Yrotation 
						End Site
						{
							OFFSET 0.0 0.0 0.0
						}
					}
				}
				JOINT Shoulder_L
				{
					OFFSET 12.9942 -0.242716 4.98039
					CHANNELS 6 Xposition Yposition Zposition Zrotation Xrotation Yrotation 
					JOINT UpperArm_L
					{
						OFFSET 5.34809 0.0 0.0
						CHANNELS 6 Xposition Yposition Zposition Zrotation Xrotation Yrotation 
						JOINT LowerArm_L
						{
							OFFSET 24.3286 1.87007e-05 0.0
							CHANNELS 6 Xposition Yposition Zposition Zrotation Xrotation Yrotation 
							JOINT Hand_L
							{
								OFFSET 22.2916 0.0 0.0
								CHANNELS 6 Xposition Yposition Zposition Zrotation Xrotation Yrotation 
								End Site
								{
									OFFSET 0.0 0.0 0.0
								}
							}
						}
					}
				}
				JOINT Shoulder_R
				{
					OFFSET 12.9945 -0.242716 -4.98039
					CHANNELS 6 Xposition Yposition Zposition Zrotation Xrotation Yrotation 
					JOINT UpperArm_R
					{
						OFFSET -5.34813 0.0 0.0
						CHANNELS 6 Xposition Yposition Zposition Zrotation Xrotation Yrotation 
						JOINT LowerArm_R
						{
							OFFSET -24.3289 0.000322201 0.0
							CHANNELS 6 Xposition Yposition Zposition Zrotation Xrotation Yrotation 
							JOINT Hand_R
							{
								OFFSET -22.2915 -0.000108084 0.0
								CHANNELS 6 Xposition Yposition Zposition Zrotation Xrotation Yrotation 
								End Site
								{
									OFFSET 0.0 0.0 0.0
								}
							}
						}
					}
				}
			}
		}
		JOINT UpperLeg_L
		{
			OFFSET -2.19248 -6.46944 0.0
			CHANNELS 6 Xposition Yposition Zposition Zrotation Xrotation Yrotation 
			JOINT LowerLeg_L
			{
				OFFSET 39.0811 0.0 -1.23785e-05
				CHANNELS 6 Xposition Yposition Zposition Zrotation Xrotation Yrotation 
				JOINT Foot_L
				{
					OFFSET 40.9854 0.0 -1.26872e-05
					CHANNELS 6 Xposition Yposition Zposition Zrotation Xrotation Yrotation 
					JOINT Toes_L
					{
						OFFSET 11.7543 0.0 0.0
						CHANNELS 6 Xposition Yposition Zposition Zrotation Xrotation Yrotation 
						End Site
						{
							OFFSET 0.0 0.0 0.0
						}
					}
				}
			}
		}
		JOINT UpperLeg_R
		{
			OFFSET -2.19251 6.46944 0.0
			CHANNELS 6 Xposition Yposition Zposition Zrotation Xrotation Yrotation 
			JOINT LowerLeg_R
			{
				OFFSET -39.0811 -0.00228153 -0.0401928
				CHANNELS 6 Xposition Yposition Zposition Zrotation Xrotation Yrotation 
				JOINT Foot_R
				{
					OFFSET -40.9854 0.0 0.0
					CHANNELS 6 Xposition Yposition Zposition Zrotation Xrotation Yrotation 
					JOINT Toes_R
					{
						OFFSET -11.7543 0.0 0.0
						CHANNELS 6 Xposition Yposition Zposition Zrotation Xrotation Yrotation 
						End Site
						{
							OFFSET 0.0 0.0 0.0
						}
					}
				}
			}
		}
	}
}
MOTION
Frames:	6
Frame Time:	0.0333333
0.000000 0.000000 0.000000 0.000000 0.000000 -0.000000 -0.529983 92.969500 0.069363 87.509500 3.180040 -0.052392 15.735700 0.000005 -0.000001 69.091400 87.276800 -67.507900 8.984550 -0.406207 -0.000000 -2.648210 -2.086870 3.119250 16.377300 -0.000001 -0.000001 3.323760 0.734251 -2.266320 6.456720 -0.000001 -0.000000 0.893504 -0.606776 -1.003350 12.994200 -0.242716 4.980390 -92.570900 7.663950 -71.392500 5.348090 -0.000007 -0.000001 -74.358400 21.986300 0.442779 24.328600 0.000019 0.000005 16.099300 28.400800 -31.249900 22.291600 -0.000001 0.000005 -3.629170 5.002010 7.276860 12.994500 -0.242716 -4.980390 88.421000 5.103020 -72.781200 -5.348130 -0.000001 -0.000004 -70.505900 30.646700 -5.017630 -24.328900 0.000322 -0.000009 2.146860 7.070000 -16.947000 -22.291500 -0.000108 -0.000004 2.056010 5.219370 2.228970 -2.192480 -6.469440 -0.000000 -176.786000 3.988350 -3.266680 39.081100 -0.000007 -0.000012 0.187822 -0.554477 18.713500 40.985400 -0.000006 -0.000013 2.731120 10.272500 -71.800500 11.754300 -0.000000 0.000003 -0.000471 0.175213 -9.469840 -2.192510 6.469440 -0.000001 -175.562000 6.768610 -178.661000 -39.081100 -0.002282 -0.040193 0.018419 -0.073568 11.586100 -40.985400 0.000008 0.000006 -1.867980 0.351262 -68.595300 -11.754300 -0.000006 -0.000006 -0.009786 0.269701 -5.616600
0.000000 0.000000 0.000000 0.000000 0.000000 -0.000000 -0.597975 92.979300 0.022942 87.506200 3.163150 -0.118238 15.735700 0.000005 -0.000001 69.187000 87.283400 -67.585400 8.984550 -0.406207 -0.000000 -2.657020 -2.075480 3.155530 16.377300 -0.000001 -0.000001 3.145250 0.580048 -2.333400 6.456720 -0.000001 -0.000000 0.678112 -0.836988 -1.286830 12.994200 -0.242716 4.980390 -92.630100 7.777500 -71.250400 5.348090 -0.000007 -0.000001 -74.016200 19.972200 0.353583 24.328600 0.000019 0.000005 16.495300 27.676300 -32.519500 22.291600 -0.000001 0.000005 -3.889830 4.997920 7.363560 12.994500 -0.242716 -4.980390 88.426700 5.081690 -72.772500 -5.348130 -0.000001 -0.000004 -70.510000 30.525400 -5.028150 -24.328900 0.000322 -0.000009 2.168140 7.127720 -16.975500 -22.291500 -0.000108 -0.000004 1.995510 5.217400 2.279090 -2.192480 -6.469440 -0.000000 -176.729000 3.964690 -3.343510 39.081100 -0.000007 -0.000012 0.187905 -0.555971 18.674400 40.985400 -0.000006 -0.000013 2.681380 10.309800 -71.787200 11.754300 -0.000000 0.000003 -0.000575 0.176801 -9.405330 -2.192510 6.469440 -0.000001 -175.488000 6.717790 -178.706000 -39.081100 -0.002282 -0.040193 0.017742 -0.070990 11.471200 -40.985400 0.000008 0.000006 -1.779570 0.238163 -68.519900 -11.754300 -0.000006 -0.000006 -0.009703 0.269073 -5.642280
0.000000 0.000000 0.000000 0.000000 0.000000 -0.000000 -0.670178 92.988100 -0.023220 87.516000 3.231010 -0.195341 15.735700 0.000005 -0.000001 69.491300 87.307800 -67.870600 8.984550 -0.406207 -0.000000 -2.692840 -2.033580 3.194070 16.377300 -0.000001 -0.000001 3.004320 0.390902 -2.479570 6.456720 -0.000001 -0.000000 0.366390 -1.257990 -1.722530 12.994200 -0.242716 4.980390 -92.699800 7.932650 -71.135400 5.348090 -0.000007 -0.000001 -73.510100 17.621300 0.247330 24.328600 0.000019 0.000005 17.025600 26.591800 -34.375900 22.291600 -0.000001 0.000005 -4.167470 4.991500 7.499990 12.994500 -0.242716 -4.980390 88.433700 5.055550 -72.760700 -5.348130 -0.000001 -0.000004 -70.543700 30.379500 -4.941650 -24.328900 0.000322 -0.000009 2.182050 7.164520 -16.995900 -22.291500 -0.000108 -0.000004 2.032330 5.219930 2.214710 -2.192480 -6.469440 -0.000000 -176.648000 3.860490 -3.455100 39.081100 -0.000007 -0.000012 0.182801 -0.542447 18.623800 40.985400 -0.000006 -0.000013 2.635040 10.482800 -71.663200 11.754300 -0.000000 0.000003 -0.000430 0.174575 -9.495760 -2.192510 6.469440 -0.000001 -175.432000 6.742010 -178.808000 -39.081100 -0.002282 -0.040193 0.017961 -0.072320 11.432200 -40.985400 0.000008 0.000006 -1.768130 0.213598 -68.476400 -11.754300 -0.000006 -0.000006 -0.009807 0.269859 -5.610110
0.000000 0.000000 0.000000 0.000000 0.000000 -0.000000 -0.766418 92.991500 -0.068807 87.528800 3.331860 -0.235234 15.735700 0.000005 -0.000001 70.064800 87.318700 -68.427000 8.984550 -0.406207 -0.000000 -2.695070 -1.977210 3.229460 16.377300 -0.000001 -0.000001 2.758840 0.097644 -2.662870 6.456720 -0.000001 -0.000000 0.071545 -1.797540 -2.402860 12.994200 -0.242716 4.980390 -92.769100 8.107430 -71.070000 5.348090 -0.000007 -0.000001 -72.792300 15.191400 0.256727 24.328600 0.000019 0.000005 18.612500 25.723300 -37.808900 22.291600 -0.000001 0.000005 -4.134570 4.974860 7.849190 12.994500 -0.242716 -4.980390 88.443500 5.031390 -72.785600 -5.348130 -0.000001 -0.000004 -70.582900 30.356700 -4.822140 -24.328900 0.000322 -0.000009 2.158800 7.061920 -17.054100 -22.291500 -0.000108 -0.000004 1.999040 5.218590 2.248930 -2.192480 -6.469440 -0.000000 -176.581000 3.842620 -3.542030 39.081100 -0.000007 -0.000012 0.185342 -0.549493 18.639400 40.985400 -0.000006 -0.000013 2.581980 10.611000 -71.728400 11.754300 -0.000000 0.000003 -0.000481 0.175361 -9.463830 -2.192510 6.469440 -0.000001 -175.331000 6.596980 -178.844000 -39.081100 -0.002282 -0.040193 0.018441 -0.075219 11.354400 -40.985400 0.000008 0.000006 -1.616990 -0.035313 -68.434300 -11.754300 -0.000006 -0.000006 -0.009786 0.269696 -5.616800
0.000000 0.000000 0.000000 0.000000 0.000000 -0.000000 -0.872567 92.988300 -0.123614 87.545200 3.454830 -0.262330 15.735700 0.000005 -0.000001 70.544500 87.312000 -68.897400 8.984550 -0.406207 -0.000000 -2.667580 -1.939890 3.249290 16.377300 -0.000001 -0.000001 2.429620 -0.199917 -2.991010 6.456720 -0.000001 -0.000000 -0.248870 -2.420180 -3.106890 12.994200 -0.242716 4.980390 -92.797200 8.123870 -70.927400 5.348090 -0.000007 -0.000001 -72.122500 12.820400 0.340961 24.328600 0.000019 0.000005 21.577600 25.193900 -42.891500 22.291600 -0.000001 0.000005 -3.275390 4.949450 8.374050 12.994500 -0.242716 -4.980390 88.454000 5.016200 -72.846200 -5.348130 -0.000001 -0.000004 -70.626700 30.354800 -4.736100 -24.328900 0.000322 -0.000009 2.150530 7.023040 -17.080800 -22.291500 -0.000108 -0.000004 1.876290 5.221590 2.172040 -2.192480 -6.469440 -0.000000 -176.502000 3.871330 -3.665260 39.081100 -0.000007 -0.000012 0.184614 -0.545570 18.695500 40.985400 -0.000006 -0.000013 2.523290 10.749900 -71.672000 11.754300 -0.000000 0.000003 -0.000396 0.174049 -9.517130 -2.192510 6.469440 -0.000001 -175.253000 6.685940 -178.946000 -39.081100 -0.002282 -0.040193 0.019632 -0.080680 11.419100 -40.985400 0.000008 0.000006 -1.496350 -0.102561 -68.471700 -11.754300 -0.000006 -0.000006 -0.009518 0.267670 -5.699630
0.000000 0.000000 0.000000 0.000000 0.000000 -0.000000 -1.015410 92.988800 -0.170147 87.535100 3.670270 -0.273444 15.735700 0.000005 -0.000001 71.056900 87.316500 -69.390700 8.984550 -0.406207 -0.000000 -2.660640 -1.893200 3.288750 16.377300 -0.000001 -0.000001 2.149550 -0.542763 -3.320340 6.456720 -0.000001 -0.000000 -0.549270 -3.095870 -4.045810 12.994200 -0.242716 4.980390 -92.789500 8.082650 -70.886700 5.348090 -0.000007 -0.000001 -71.593300 10.041800 0.582128 24.328600 0.000019 0.000005 25.014200 23.863700 -49.072300 22.291600 -0.000001 0.000005 -1.981830 4.910140 9.171770 12.994500 -0.242716 -4.980390 88.468900 4.976530 -72.874700 -5.348130 -0.000001 -0.000004 -70.669300 30.408900 -4.639130 -24.328900 0.000322 -0.000009 2.148500 7.019860 -17.072900 -22.291500 -0.000108 -0.000004 1.945350 5.219440 2.227470 -2.192480 -6.469440 -0.000000 -176.365000 3.951010 -3.769020 39.081100 -0.000007 -0.000012 0.183703 -0.541260 18.747500 40.985400 -0.000006 -0.000013 2.434140 10.902500 -71.697300 11.754300 -0.000000 0.000003 -0.000349 0.173303 -9.547430 -2.192510 6.469440 -0.000001 -175.126000 6.759480 -178.987000 -39.081100 -0.002282 -0.040193 0.019154 -0.078506 11.391400 -40.985400 0.000008 0.000006 -1.488730 -0.251724 -68.463700 -11.754300 -0.000006 -0.000006 -0.009847 0.270155 -5.598000
